<svg xmlns="http://www.w3.org/2000/svg" width="703" height="125" shape-rendering="geometricPrecision" text-rendering="geometricPrecision" image-rendering="optimizeQuality" fill-rule="evenodd" clip-rule="evenodd"><defs><style>.fil1{fill:#231e20}.fil2{fill:#2b2a29;fill-rule:nonzero}</style></defs><g id="Слой_x0020_1"><g id="_2399989697072"><path d="M88.78 35.7c.69-.18 6.15 3.22 6.65 3.63v12.91c-.71-.04-15.78-8.94-17.81-10.07l11.16-6.47zM53.15 15.45c.88-.43 1.44.22 2.16.63L76.5 28.39c-1.25.94-3.03 1.75-4.31 2.53-1.44.91-2.82 1.6-4.29 2.44-2.97 1.81-2.4 1.78-4.31.69l-17-9.84c-.84-.5-1.37-.79-2.15-1.22-.44-.28-1.75-1-2.04-1.32l10.75-6.21v-.01zm-23.47-.9l-6.09-3.5c-.66-.1-1.16.37-1.66.65-.59.32-1.03.63-1.59.97-1.03.6-2.25 1.07-3.06 1.91v7.16c1.72 1.18 7.28 4.12 9.75 5.62 3.19 1.97 6.59 3.84 9.78 5.63 3.34 1.9 6.47 3.84 9.75 5.65 1.72.97 3.25 1.88 4.87 2.82 8 4.71 16.47 9.28 24.47 14.09l19.5 11.31.03 34.63c1.22-.38 2.25-1.16 3.29-1.75 1.06-.6 2.12-1.22 3.12-1.82 1.03-.59 2.06-1.12 3.03-1.71.91-.54 2.31-1.22 3.03-1.82 0-20.15.19-42.4 0-62.34-1.84-1.31-4.69-2.75-6.75-3.91-2.4-1.37-4.5-2.59-6.75-3.93-1.09-.66-2.25-1.29-3.4-1.94-1.82-1.06-1.07-.78-1.41-1.1-.31-.25.03-.03-.28-.15-.03 0-.28-.03-.53-.09L53.9.74c-1.56.56-4.47 2.53-6.09 3.44L29.68 14.55z" fill="#ebc858"/><path class="fil1" d="M71.53 101.02c-2.78 1.75-5.88 3.43-8.75 5.06-1.53.87-2.91 1.69-4.38 2.53-5.81 3.28-3.37 3.22-7.84.72-12.16-6.81-25.09-14.5-37.22-21.47-.66-.37-12.75-7.62-13.59-7.65l.06 14.15c1 .88 3.78 2.22 5.16 3.06l15.81 9.1c10.44 5.84 21.03 12.25 31.53 18.25 1.91 1.09 1.06 1.15 5.34-1.31l15.75-9.13c1.88-1.09 9.47-5.25 10.5-6.12l.1-34.75-12.44-7.13-.03 34.69z"/><path class="fil1" d="M60.12 94.33l-.03-34.63c-1.22-.81-11.81-7.06-12.47-7.12v27.44C46.53 79.67.72 52.67-.19 52.61c-.16 3.97-.22 9.62-.03 13.53.06 1.25 1.91 1.72 3.81 2.84 12.69 7.57 26.19 15.13 39.06 22.6l10.79 6.22c.87.31 1.68-.47 2.37-.88 1.31-.78 3.31-1.78 4.31-2.59z"/><path class="fil1" d="M-.19 37.67v1.5l18 10.44c1.94 1.09 16.9 10 18.37 10.5v-14.4c-1.56-.44-29.22-17.04-30.03-17.16-.43-.06-4.22 2.25-4.97 2.69-1.87 1.06-1.37.21-1.37 6.43z"/><path class="fil2" d="M223.81 94.03c0 .33-.1.65-.3.93-.2.26-.58.49-1.1.66-.52.16-1.22.3-2.1.4-.87.11-1.99.16-3.33.16-1.32 0-2.41-.05-3.29-.16-.87-.1-1.56-.24-2.08-.4-.5-.17-.87-.4-1.07-.66-.23-.28-.34-.6-.34-.93V40.07h-.11l-20.36 53.91c-.15.44-.37.8-.7 1.1-.34.3-.76.52-1.34.7-.56.16-1.28.28-2.14.33-.87.05-1.93.07-3.16.07-1.24 0-2.28-.03-3.16-.12-.87-.09-1.6-.23-2.16-.42-.55-.19-1-.42-1.33-.68-.32-.28-.54-.62-.65-.98l-19.65-53.91h-.11v53.96c0 .33-.1.65-.3.93-.2.26-.58.49-1.11.66-.56.16-1.27.3-2.12.4-.86.11-1.96.16-3.3.16-1.31 0-2.41-.05-3.28-.16-.88-.1-1.58-.24-2.1-.4-.53-.17-.9-.4-1.1-.66-.21-.28-.3-.6-.3-.93V34.97c0-1.75.48-3.08 1.47-4.01.98-.92 2.29-1.38 3.94-1.38h9.37c1.67 0 3.12.13 4.31.39 1.21.26 2.25.68 3.12 1.27.86.6 1.6 1.39 2.18 2.36.58.98 1.1 2.19 1.52 3.62l15.19 39.49h.22l15.73-39.4c.46-1.43.98-2.64 1.54-3.64.58-.97 1.23-1.78 1.97-2.39.74-.61 1.64-1.05 2.64-1.31 1.02-.26 2.21-.39 3.55-.39h9.67c.98 0 1.82.13 2.52.37.71.23 1.31.58 1.75 1.05.47.46.8 1.01 1.04 1.68.24.66.36 1.43.36 2.29v59.06z"/><path id="1" class="fil2" d="M283.25 69.96c0 1.57-.37 2.73-1.12 3.48-.74.75-1.76 1.14-3.08 1.14h-29.59c0 1.94.24 3.68.74 5.27.49 1.58 1.27 2.92 2.33 4.02 1.07 1.11 2.45 1.95 4.14 2.52 1.69.58 3.7.88 6.06.88 2.4 0 4.5-.16 6.32-.49 1.8-.34 3.38-.69 4.7-1.09 1.32-.4 2.42-.75 3.29-1.08.88-.33 1.58-.49 2.12-.49.34 0 .62.05.82.17.22.13.41.34.56.65.13.3.24.73.3 1.29.05.56.07 1.28.07 2.12 0 .75-.02 1.4-.06 1.92-.03.53-.09.98-.16 1.35-.08.38-.17.7-.32.94-.15.26-.34.51-.58.75-.24.23-.87.56-1.93.98-1.06.42-2.4.82-4.03 1.23-1.64.4-3.5.75-5.6 1.04-2.1.3-4.35.46-6.75.46-4.33 0-8.1-.51-11.35-1.54-3.24-1.01-5.95-2.57-8.14-4.65-2.18-2.08-3.8-4.72-4.88-7.88-1.05-3.18-1.59-6.91-1.59-11.17 0-4.06.56-7.71 1.69-10.98 1.11-3.25 2.75-6.01 4.91-8.28 2.13-2.27 4.74-4 7.8-5.19 3.09-1.21 6.55-1.8 10.39-1.8 4.07 0 7.55.55 10.43 1.69 2.9 1.12 5.26 2.69 7.12 4.69 1.84 1.99 3.22 4.36 4.09 7.09.87 2.73 1.3 5.7 1.3 8.92v2.04zm-13.27-3.67c.11-3.62-.67-6.47-2.32-8.53-1.66-2.08-4.21-3.11-7.66-3.11-1.75 0-3.27.31-4.56.93-1.3.61-2.38 1.43-3.23 2.48-.86 1.05-1.51 2.27-1.95 3.69-.47 1.43-.73 2.93-.8 4.54h20.52z"/><path id="2" class="fil2" d="M330.32 52.34c0 1.12-.04 2.07-.13 2.82-.1.73-.24 1.34-.41 1.78-.19.44-.41.75-.69.91-.28.17-.58.26-.89.26h-12.27v36.03c0 .33-.11.62-.33.89-.21.26-.58.47-1.08.64-.5.16-1.21.3-2.1.39-.9.09-2.01.12-3.35.12-1.3 0-2.4-.03-3.27-.12-.86-.09-1.56-.23-2.08-.39-.54-.17-.89-.38-1.1-.64-.2-.27-.3-.56-.3-.89V58.11h-12.21c-.37 0-.69-.09-.95-.28-.28-.19-.5-.51-.68-.94-.19-.44-.32-1.05-.41-1.84-.1-.79-.13-1.73-.13-2.87 0-1.01.05-1.86.16-2.56.12-.7.25-1.28.43-1.72.19-.43.41-.75.65-.94.26-.19.58-.28.93-.28h38.09c.31 0 .61.09.89.28.28.19.5.51.69.94.18.44.31 1.03.41 1.77.09.73.13 1.62.13 2.67z"/><path id="3" class="fil2" d="M379.13 94.29c0 .47-.19.84-.54 1.12-.37.28-.95.47-1.73.59-.78.13-1.93.18-3.47.18-1.64 0-2.83-.05-3.57-.18-.75-.12-1.29-.31-1.58-.59-.32-.28-.47-.65-.47-1.12v-3.63a21.987 21.987 0 01-6.84 4.68c-2.55 1.12-5.39 1.68-8.51 1.68-2.57 0-4.95-.32-7.1-.94-2.16-.63-4.02-1.58-5.6-2.82-1.58-1.26-2.8-2.8-3.68-4.63-.87-1.85-1.3-4-1.3-6.45 0-2.68.56-4.98 1.65-6.94 1.12-1.97 2.77-3.58 4.97-4.88 2.19-1.27 4.91-2.22 8.18-2.83 3.25-.61 7.04-.93 11.35-.93h4.74v-2.76c0-1.43-.14-2.69-.46-3.77-.3-1.07-.82-1.98-1.52-2.69-.71-.72-1.64-1.24-2.83-1.59-1.17-.34-2.64-.51-4.37-.51-2.28 0-4.33.24-6.11.71-1.81.48-3.39 1.02-4.76 1.6-1.38.57-2.53 1.11-3.46 1.59-.93.47-1.67.71-2.25.71-.41 0-.76-.12-1.06-.35-.32-.24-.57-.59-.76-1.03-.2-.43-.35-.99-.47-1.64-.11-.65-.16-1.36-.16-2.13 0-1.07.09-1.91.28-2.52.16-.61.52-1.15 1.02-1.66.52-.49 1.39-1.03 2.68-1.63 1.26-.59 2.75-1.15 4.46-1.66 1.71-.52 3.57-.94 5.57-1.26 2.03-.33 4.11-.48 6.25-.48 3.81 0 7.06.35 9.78 1.04 2.69.7 4.92 1.79 6.65 3.24 1.75 1.45 3.03 3.32 3.83 5.61.8 2.27 1.19 5 1.19 8.13v30.74zm-13.5-19.61h-5.22c-2.21 0-4.09.16-5.65.45-1.56.32-2.83.77-3.81 1.4-.99.61-1.69 1.35-2.14 2.22-.46.88-.69 1.87-.69 2.99 0 1.92.66 3.43 1.94 4.51 1.28 1.1 3.06 1.65 5.35 1.65 1.92 0 3.68-.46 5.3-1.39 1.62-.92 3.25-2.27 4.92-4.05v-7.78z"/><path id="4" class="fil2" d="M437.76 94.14c0 .33-.12.62-.34.89-.2.26-.57.47-1.08.64-.52.16-1.22.3-2.12.39-.89.09-1.98.12-3.28.12-1.36 0-2.48-.03-3.37-.12-.89-.09-1.62-.23-2.14-.39-.52-.17-.89-.38-1.09-.64-.21-.27-.3-.56-.3-.89V57.17h-9.82c-.57 5.36-1.3 10.08-2.15 14.12-.86 4.05-1.84 7.55-2.98 10.49-1.11 2.95-2.36 5.38-3.73 7.3-1.36 1.94-2.86 3.46-4.5 4.6a15.8 15.8 0 01-5.32 2.41c-1.89.47-3.92.72-6.02.72-.5 0-.93-.07-1.26-.21-.32-.14-.58-.4-.76-.79-.17-.4-.3-.96-.38-1.71-.07-.77-.11-1.75-.11-2.99 0-1.26.02-2.29.08-3.08.05-.78.16-1.38.31-1.81.15-.42.34-.7.6-.84.26-.14.57-.21.93-.21 1.02 0 2-.19 2.93-.6.93-.38 1.81-1.08 2.62-2.09.82-1.02 1.6-2.35 2.33-4.01.74-1.64 1.41-3.74 2.02-6.27.63-2.52 1.21-5.54 1.77-9.04.54-3.51 1.08-7.58 1.58-12.23.07-1.4.39-2.43.95-3.11.56-.69 1.48-1.04 2.75-1.04H434c1.27 0 2.21.35 2.83 1.04.61.68.93 1.71.93 3.11v43.21z"/><path id="5" class="fil2" d="M496.4 94.14c0 .33-.11.62-.33.89-.21.26-.58.47-1.08.64-.52.16-1.23.3-2.12.39-.89.09-1.99.12-3.29.12-1.36 0-2.47-.03-3.36-.12-.9-.09-1.62-.23-2.14-.39-.52-.17-.89-.38-1.1-.64-.2-.27-.29-.56-.29-.89V57.17h-9.82c-.58 5.36-1.3 10.08-2.16 14.12-.85 4.05-1.84 7.55-2.97 10.49-1.12 2.95-2.36 5.38-3.74 7.3-1.35 1.94-2.86 3.46-4.5 4.6-1.63 1.14-3.4 1.94-5.31 2.41-1.9.47-3.92.72-6.02.72-.51 0-.93-.07-1.27-.21-.31-.14-.57-.4-.76-.79-.17-.4-.3-.96-.37-1.71-.07-.77-.11-1.75-.11-2.99 0-1.26.02-2.29.07-3.08.06-.78.17-1.38.32-1.81.15-.42.33-.7.59-.84.26-.14.58-.21.93-.21 1.02 0 2.01-.19 2.94-.6.93-.38 1.8-1.08 2.62-2.09.82-1.02 1.6-2.35 2.32-4.01.75-1.64 1.42-3.74 2.03-6.27.63-2.52 1.21-5.54 1.77-9.04.53-3.51 1.07-7.58 1.58-12.23.07-1.4.39-2.43.94-3.11.56-.69 1.49-1.04 2.75-1.04h28.13c1.26 0 2.21.35 2.82 1.04.62.68.93 1.71.93 3.11v43.21z"/><path d="M556.74 73.52c0 3.91-.59 7.5-1.76 10.75-1.17 3.23-2.85 5.99-5.02 8.26-2.17 2.29-4.77 4.06-7.78 5.3-3.02 1.24-6.38 1.87-10.06 1.87-4.09 0-7.61-.63-10.53-1.89a17.662 17.662 0 01-7.22-5.71c-1.88-2.55-3.27-5.75-4.14-9.63-.87-3.88-1.31-8.43-1.31-13.65 0-3.8.19-7.36.6-10.72.38-3.34.96-6.41 1.73-9.19.76-2.78 1.71-5.23 2.84-7.33 1.12-2.09 2.29-3.77 3.48-5.05 1.19-1.26 2.36-2.27 3.48-3.04s2.38-1.45 3.74-2.04c1.36-.62 2.89-1.12 4.55-1.58 1.67-.43 3.51-.82 5.49-1.12l16.27-2.36c.61-.07 1.12-.08 1.5-.05.4.04.7.23.91.6.19.34.33.9.4 1.67.07.77.11 1.84.11 3.2 0 .96-.04 1.8-.11 2.5s-.21 1.3-.4 1.82c-.21.51-.49.91-.84 1.19-.37.3-.82.47-1.36.54l-15.03 2.27c-1.4.21-2.63.44-3.68.7-1.06.26-1.99.56-2.79.88-.79.33-1.49.7-2.1 1.11-.59.41-1.17.91-1.75 1.49-.59.59-1.12 1.33-1.59 2.22-.47.91-.89 1.89-1.22 2.95-.35 1.07-.63 2.22-.88 3.48-.24 1.28-.45 2.59-.66 3.95.93-.96 1.96-1.83 3.09-2.64 1.14-.8 2.36-1.48 3.66-2.04 1.29-.56 2.67-1.02 4.12-1.33 1.45-.33 2.97-.49 4.58-.49 3.34 0 6.24.53 8.71 1.59 2.48 1.05 4.52 2.57 6.13 4.56 1.63 2.01 2.83 4.43 3.64 7.27.8 2.85 1.2 6.07 1.2 9.69zm-13.11.7c0-1.91-.17-3.67-.5-5.32-.35-1.62-.89-3.04-1.65-4.23a8.207 8.207 0 00-2.99-2.83c-1.25-.7-2.74-1.05-4.49-1.05-1.15 0-2.22.14-3.21.44-1 .28-1.96.72-2.91 1.29-.92.58-1.85 1.28-2.77 2.1-.93.82-1.91 1.77-2.92 2.85-.04.42-.05.86-.05 1.33v1.48c0 3.2.19 5.98.55 8.34.39 2.36.98 4.34 1.82 5.89.84 1.57 1.94 2.73 3.29 3.48 1.34.75 2.99 1.12 4.93 1.12 1.75 0 3.3-.33 4.66-1 1.37-.66 2.5-1.62 3.43-2.9.93-1.27 1.63-2.85 2.1-4.7.47-1.85.71-3.95.71-6.29z" fill="#ebc858" fill-rule="nonzero"/><path class="fil2" d="M614.77 73.19c0 3.88-.51 7.43-1.54 10.64-1.03 3.2-2.57 5.96-4.67 8.29-2.08 2.32-4.68 4.1-7.83 5.38-3.14 1.26-6.82 1.89-11.01 1.89-4.07 0-7.6-.56-10.61-1.7-3.01-1.12-5.51-2.76-7.48-4.91-1.98-2.15-3.44-4.79-4.41-7.93-.96-3.13-1.43-6.72-1.43-10.75 0-3.88.53-7.45 1.56-10.67 1.05-3.23 2.6-5.99 4.7-8.3 2.08-2.29 4.68-4.07 7.81-5.35 3.11-1.26 6.78-1.89 10.98-1.89 4.11 0 7.65.56 10.66 1.67 3.01 1.11 5.49 2.74 7.45 4.89 1.97 2.15 3.42 4.79 4.38 7.93.97 3.13 1.44 6.73 1.44 10.81zm-13.22.5c0-2.25-.17-4.33-.54-6.22-.37-1.9-.96-3.55-1.83-4.94-.86-1.4-2-2.51-3.41-3.29-1.44-.79-3.22-1.17-5.39-1.17-1.92 0-3.6.35-5.05 1.05-1.43.7-2.62 1.73-3.55 3.07-.92 1.35-1.62 2.97-2.08 4.86-.47 1.91-.69 4.06-.69 6.49 0 2.25.19 4.33.55 6.22.39 1.91 1 3.55 1.84 4.95a8.721 8.721 0 003.43 3.25c1.43.77 3.21 1.15 5.34 1.15 1.96 0 3.66-.35 5.11-1.05a9.21 9.21 0 003.55-3.04c.92-1.35 1.6-2.95 2.06-4.84.44-1.91.66-4.06.66-6.49zm57.96 15.53c0 .89-.01 1.62-.07 2.23-.05.6-.12 1.1-.2 1.52-.09.41-.2.74-.32 1s-.38.58-.79.98c-.42.38-1.12.87-2.09 1.43-1 .56-2.12 1.07-3.4 1.52-1.25.44-2.62.81-4.1 1.07-1.49.28-3.03.42-4.6.42-3.51 0-6.62-.54-9.33-1.64-2.73-1.09-5-2.71-6.85-4.85-1.84-2.13-3.24-4.75-4.16-7.83-.95-3.07-1.42-6.59-1.42-10.55 0-4.58.58-8.55 1.71-11.87 1.16-3.34 2.75-6.1 4.79-8.29 2.05-2.18 4.48-3.81 7.27-4.87 2.8-1.07 5.88-1.6 9.23-1.6 1.37 0 2.69.13 4.02.37 1.31.23 2.54.56 3.69.96 1.14.42 2.17.88 3.06 1.38.91.53 1.56.97 1.92 1.35.39.37.65.68.81.94.13.27.26.6.35 1 .08.42.15.93.21 1.52.05.61.07 1.33.07 2.19 0 1.99-.16 3.39-.51 4.19-.35.8-.79 1.21-1.33 1.21-.58 0-1.21-.25-1.85-.72-.65-.47-1.42-1.01-2.31-1.59-.87-.58-1.94-1.12-3.16-1.59-1.23-.47-2.7-.72-4.41-.72-3.36 0-5.91 1.3-7.69 3.87-1.76 2.58-2.66 6.36-2.66 11.34 0 2.45.23 4.61.67 6.5.45 1.87 1.1 3.44 1.97 4.7.88 1.26 1.96 2.22 3.27 2.85 1.33.63 2.85.95 4.6.95 1.76 0 3.3-.27 4.58-.81 1.27-.52 2.39-1.12 3.35-1.76.95-.65 1.75-1.24 2.42-1.77.64-.54 1.18-.8 1.62-.8.32 0 .56.08.77.26.21.17.37.49.49.94.12.48.21 1.07.28 1.79.07.71.1 1.64.1 2.78zm43.28 0c0 .89-.01 1.62-.07 2.23-.05.6-.12 1.1-.21 1.52-.08.41-.19.74-.31 1s-.39.58-.79.98c-.42.38-1.12.87-2.1 1.43-.99.56-2.11 1.07-3.39 1.52-1.26.44-2.62.81-4.1 1.07-1.49.28-3.03.42-4.6.42-3.51 0-6.63-.54-9.33-1.64-2.73-1.09-5-2.71-6.86-4.85-1.83-2.13-3.23-4.75-4.16-7.83-.94-3.07-1.41-6.59-1.41-10.55 0-4.58.57-8.55 1.71-11.87 1.15-3.34 2.74-6.1 4.79-8.29 2.05-2.18 4.47-3.81 7.27-4.87 2.8-1.07 5.87-1.6 9.23-1.6 1.36 0 2.69.13 4.02.37 1.31.23 2.53.56 3.69.96 1.13.42 2.17.88 3.06 1.38.91.53 1.55.97 1.92 1.35.38.37.65.68.8.94.14.27.27.6.35 1 .09.42.16.93.21 1.52.06.61.07 1.33.07 2.19 0 1.99-.15 3.39-.5 4.19-.35.8-.79 1.21-1.33 1.21-.58 0-1.21-.25-1.86-.72-.64-.47-1.41-1.01-2.3-1.59-.88-.58-1.94-1.12-3.17-1.59-1.22-.47-2.69-.72-4.4-.72-3.36 0-5.91 1.3-7.69 3.87-1.77 2.58-2.66 6.36-2.66 11.34 0 2.45.23 4.61.67 6.5.45 1.87 1.1 3.44 1.97 4.7.87 1.26 1.96 2.22 3.27 2.85 1.33.63 2.85.95 4.6.95 1.76 0 3.3-.27 4.58-.81 1.27-.52 2.39-1.12 3.35-1.76.95-.65 1.75-1.24 2.41-1.77.65-.54 1.19-.8 1.63-.8.31 0 .56.08.77.26.21.17.37.49.49.94.12.48.21 1.07.28 1.79.07.71.1 1.64.1 2.78z"/></g></g></svg>